<mxfile host="app.diagrams.net" modified="2024-05-27T12:13:45.202Z" agent="Mozilla/5.0 (Windows NT 10.0; Win64; x64) AppleWebKit/537.36 (KHTML, like Gecko) Chrome/124.0.0.0 Safari/537.36" version="24.4.9" etag="yZ6ZREjFzzjKd_YX7mqa" type="github">
  <diagram name="PÃ¡gina-1" id="Hd44bR5GmLUTdg6-NAdy">
    <mxGraphModel>
      <root>
        <mxCell id="0" />
        <mxCell id="1" parent="0" />
      </root>
    </mxGraphModel>
  </diagram>
</mxfile>
